<svg width="28" height="28" viewBox="0 0 28 28" fill="none" xmlns="http://www.w3.org/2000/svg">
<path d="M27.589 8.28598L24.089 4.78598C23.9972 4.6942 23.8803 4.63171 23.753 4.60639C23.6257 4.58107 23.4937 4.59407 23.3738 4.64373C23.2539 4.6934 23.1514 4.77751 23.0793 4.88542C23.0072 4.99334 22.9687 5.12021 22.9687 5.25V6.34375H21.6562V2.625C21.6555 1.98704 21.4018 1.37541 20.9507 0.924308C20.4996 0.473202 19.8879 0.219459 19.25 0.21875H8.74997C8.11201 0.219459 7.50038 0.473202 7.04928 0.924308C6.59817 1.37541 6.34443 1.98704 6.34372 2.625V16.8438H5.03122V15.75C5.03121 15.6202 4.99272 15.4933 4.92061 15.3854C4.8485 15.2775 4.74601 15.1934 4.6261 15.1437C4.50619 15.0941 4.37425 15.0811 4.24695 15.1064C4.11965 15.1317 4.00272 15.1942 3.91095 15.286L0.410946 18.786C0.287884 18.909 0.21875 19.076 0.21875 19.25C0.21875 19.424 0.287884 19.591 0.410946 19.714L3.91095 23.214C4.30065 23.629 5.04954 23.3166 5.03122 22.75V21.6562H6.34372V25.375C6.34443 26.013 6.59817 26.6246 7.04928 27.0757C7.50038 27.5268 8.11201 27.7805 8.74997 27.7812H19.25C19.8879 27.7805 20.4996 27.5268 20.9507 27.0757C21.4018 26.6246 21.6555 26.013 21.6562 25.375V11.1562H22.9687V12.25C22.9505 12.8167 23.6993 13.1289 24.089 12.714L27.589 9.21402C27.7121 9.09095 27.7812 8.92404 27.7812 8.75C27.7812 8.57596 27.7121 8.40905 27.589 8.28598V8.28598ZM8.74997 1.53125H19.25C19.5399 1.53158 19.818 1.64692 20.023 1.85197C20.228 2.05702 20.3434 2.33502 20.3437 2.625V3.71875H7.65622V2.625C7.65655 2.33502 7.77189 2.05702 7.97694 1.85197C8.18198 1.64692 8.45999 1.53158 8.74997 1.53125V1.53125ZM19.25 26.4688H8.74997C8.45999 26.4684 8.18198 26.3531 7.97694 26.148C7.77189 25.943 7.65655 25.665 7.65622 25.375V24.2812H20.3437V25.375C20.3434 25.665 20.228 25.943 20.023 26.148C19.818 26.3531 19.5399 26.4684 19.25 26.4688V26.4688ZM24.2812 10.6656V10.5C24.2812 10.326 24.2121 10.159 24.089 10.036C23.9659 9.91289 23.799 9.84375 23.625 9.84375H18.375C18.2009 9.84375 18.034 9.91289 17.9109 10.036C17.7879 10.159 17.7187 10.326 17.7187 10.5C17.7187 10.674 17.7879 10.841 17.9109 10.964C18.034 11.0871 18.2009 11.1562 18.375 11.1562H20.3437V22.9688H7.65622V21.6562H9.62497C9.79902 21.6562 9.96594 21.5871 10.089 21.464C10.2121 21.341 10.2812 21.174 10.2812 21C10.2812 20.826 10.2121 20.659 10.089 20.536C9.96594 20.4129 9.79902 20.3438 9.62497 20.3438H4.37497C4.20092 20.3438 4.034 20.4129 3.91093 20.536C3.78786 20.659 3.71872 20.826 3.71872 21V21.1656L1.80307 19.25L3.71872 17.3344V17.5C3.71872 17.674 3.78786 17.841 3.91093 17.964C4.034 18.0871 4.20092 18.1562 4.37497 18.1562H9.62497C9.79902 18.1562 9.96594 18.0871 10.089 17.964C10.2121 17.841 10.2812 17.674 10.2812 17.5C10.2812 17.326 10.2121 17.159 10.089 17.036C9.96594 16.9129 9.79902 16.8438 9.62497 16.8438H7.65622V5.03125H20.3437V6.34375H18.375C18.2009 6.34375 18.034 6.41289 17.9109 6.53596C17.7879 6.65903 17.7187 6.82595 17.7187 7C17.7187 7.17405 17.7879 7.34097 17.9109 7.46404C18.034 7.58711 18.2009 7.65625 18.375 7.65625H23.625C23.799 7.65625 23.9659 7.58711 24.089 7.46404C24.2121 7.34097 24.2812 7.17405 24.2812 7V6.83435L26.1969 8.75L24.2812 10.6656Z" fill="black"/>
<path d="M13.125 11.1562H15.3125C15.4865 11.1564 15.6533 11.2256 15.7763 11.3487C15.8994 11.4717 15.9686 11.6385 15.9688 11.8125C15.9687 11.9865 16.0379 12.1535 16.161 12.2765C16.284 12.3996 16.451 12.4688 16.625 12.4688C16.799 12.4688 16.966 12.3996 17.089 12.2765C17.2121 12.1535 17.2812 11.9865 17.2812 11.8125C17.2807 11.2905 17.0731 10.7901 16.704 10.421C16.3349 10.0519 15.8345 9.84433 15.3125 9.84375H14.6562V8.75C14.6562 8.57595 14.5871 8.40903 14.464 8.28596C14.341 8.16289 14.174 8.09375 14 8.09375C13.826 8.09375 13.659 8.16289 13.536 8.28596C13.4129 8.40903 13.3438 8.57595 13.3438 8.75V9.84375H13.125C12.4868 9.84375 11.8748 10.0973 11.4235 10.5485C10.9723 10.9998 10.7188 11.6118 10.7188 12.25C10.7188 12.8882 10.9723 13.5002 11.4235 13.9515C11.8748 14.4027 12.4868 14.6562 13.125 14.6562H14.875C15.1651 14.6562 15.4433 14.7715 15.6484 14.9766C15.8535 15.1817 15.9688 15.4599 15.9688 15.75C15.9688 16.0401 15.8535 16.3183 15.6484 16.5234C15.4433 16.7285 15.1651 16.8438 14.875 16.8438H12.6875C12.5135 16.8436 12.3467 16.7744 12.2237 16.6513C12.1006 16.5283 12.0314 16.3615 12.0312 16.1875C12.0313 16.0135 11.9621 15.8465 11.839 15.7235C11.716 15.6004 11.549 15.5312 11.375 15.5312C11.201 15.5312 11.034 15.6004 10.911 15.7235C10.7879 15.8465 10.7188 16.0135 10.7188 16.1875C10.7193 16.7095 10.9269 17.2099 11.296 17.579C11.6651 17.9481 12.1655 18.1557 12.6875 18.1562H13.3438V19.25C13.3438 19.424 13.4129 19.591 13.536 19.714C13.659 19.8371 13.826 19.9062 14 19.9062C14.174 19.9062 14.341 19.8371 14.464 19.714C14.5871 19.591 14.6562 19.424 14.6562 19.25V18.1562H14.875C15.5132 18.1562 16.1252 17.9027 16.5765 17.4515C17.0277 17.0002 17.2812 16.3882 17.2812 15.75C17.2812 15.1118 17.0277 14.4998 16.5765 14.0485C16.1252 13.5973 15.5132 13.3438 14.875 13.3438H13.125C12.8349 13.3438 12.5567 13.2285 12.3516 13.0234C12.1465 12.8183 12.0312 12.5401 12.0312 12.25C12.0312 11.9599 12.1465 11.6817 12.3516 11.4766C12.5567 11.2715 12.8349 11.1563 13.125 11.1562V11.1562Z" fill="black"/>
</svg>
