<svg width="28" height="28" viewBox="0 0 28 28" fill="none" xmlns="http://www.w3.org/2000/svg">
<g clip-path="url(#clip0)">
<path d="M13.9992 4.86914C11.6496 4.86914 9.73828 6.78042 9.73828 9.13003C9.73828 11.4796 11.6496 13.3909 13.9992 13.3909C16.3488 13.3909 18.26 11.4796 18.26 9.13003C18.26 6.78048 16.3488 4.86914 13.9992 4.86914ZM13.9992 12.1735C12.3216 12.1735 10.9557 10.8076 10.9557 9.13003C10.9557 7.45248 12.3216 6.08657 13.9992 6.08657C15.6767 6.08657 17.0426 7.45248 17.0426 9.13003C17.0426 10.8076 15.6768 12.1735 13.9992 12.1735Z" fill="black"/>
<path d="M22.522 9.73926C20.8444 9.73926 19.4785 11.1052 19.4785 12.7827C19.4785 14.4603 20.8444 15.8262 22.522 15.8262C24.1995 15.8262 25.5654 14.4603 25.5654 12.7827C25.5654 11.1052 24.1995 9.73926 22.522 9.73926ZM22.522 14.6088C21.5152 14.6088 20.6959 13.7895 20.6959 12.7827C20.6959 11.7759 21.5152 10.9566 22.522 10.9566C23.5288 10.9566 24.3481 11.7759 24.3481 12.7827C24.3481 13.7895 23.5287 14.6088 22.522 14.6088Z" fill="black"/>
<path d="M5.56494 9.73926C3.88614 9.73926 2.52148 11.1052 2.52148 12.7827C2.52148 14.4603 3.88739 15.8262 5.56494 15.8262C7.24248 15.8262 8.60839 14.4603 8.60839 12.7827C8.60839 11.1052 7.24368 9.73926 5.56494 9.73926ZM5.56494 14.6088C4.55814 14.6088 3.73885 13.7895 3.73885 12.7827C3.73885 11.7759 4.55814 10.9566 5.56494 10.9566C6.57174 10.9566 7.39102 11.7759 7.39102 12.7827C7.39102 13.7895 6.57168 14.6088 5.56494 14.6088Z" fill="black"/>
<path d="M13.999 14.6084C9.63585 14.6084 6.08594 18.1583 6.08594 22.5214C6.08594 22.8574 6.35865 23.1302 6.69465 23.1302C7.03065 23.1302 7.30337 22.8574 7.30337 22.5214C7.30337 18.8291 10.3066 15.8258 13.999 15.8258C17.6913 15.8258 20.6946 18.8291 20.6946 22.5214C20.6946 22.8574 20.9673 23.1302 21.3033 23.1302C21.6393 23.1302 21.9121 22.8574 21.9121 22.5214C21.9121 18.1583 18.3621 14.6084 13.999 14.6084Z" fill="black"/>
<path d="M22.5228 17.0439C21.5209 17.0439 20.5397 17.3179 19.6851 17.8353C19.399 18.0106 19.3065 18.3843 19.4806 18.6716C19.6571 18.9589 20.0296 19.0502 20.3169 18.8761C20.9804 18.4731 21.7425 18.2613 22.5228 18.2613C24.8724 18.2613 26.7837 20.1726 26.7837 22.5222C26.7837 22.8582 27.0564 23.1309 27.3924 23.1309C27.7284 23.1309 28.0011 22.8582 28.0011 22.5222C28.0011 19.5019 25.5432 17.0439 22.5228 17.0439Z" fill="black"/>
<path d="M8.3148 17.834C7.46139 17.3179 6.48021 17.0439 5.47826 17.0439C2.45791 17.0439 0 19.5019 0 22.5222C0 22.8582 0.272715 23.1309 0.608714 23.1309C0.944714 23.1309 1.21743 22.8582 1.21743 22.5222C1.21737 20.1726 3.12871 18.2613 5.47826 18.2613C6.25862 18.2613 7.02067 18.4731 7.68297 18.8749C7.96904 19.049 8.34401 18.9577 8.51932 18.6704C8.69462 18.383 8.60206 18.0093 8.3148 17.834Z" fill="black"/>
</g>
<defs>
<clipPath id="clip0">
<rect width="28" height="28" fill="white"/>
</clipPath>
</defs>
</svg>
