<svg width="28" height="28" viewBox="0 0 28 28" fill="none" xmlns="http://www.w3.org/2000/svg">
<g clip-path="url(#clip0)">
<path d="M10.4993 11.6667C7.28285 11.6667 4.66602 9.04983 4.66602 5.83333C4.66602 2.61683 7.28285 0 10.4993 0C13.7158 0 16.3327 2.61683 16.3327 5.83333C16.3327 9.04983 13.7158 11.6667 10.4993 11.6667ZM10.4993 1.16667C7.92568 1.16667 5.83268 3.25967 5.83268 5.83333C5.83268 8.407 7.92568 10.5 10.4993 10.5C13.073 10.5 15.166 8.407 15.166 5.83333C15.166 3.25967 13.073 1.16667 10.4993 1.16667Z" fill="black"/>
<path d="M9.91667 24.5H0.583333C0.261333 24.5 0 24.2387 0 23.9167V19.25C0 16.3555 2.3555 14 5.25 14H12.25C12.572 14 12.8333 14.2613 12.8333 14.5833C12.8333 14.9053 12.572 15.1667 12.25 15.1667H5.25C2.99833 15.1667 1.16667 16.9983 1.16667 19.25V23.3333H9.91667C10.2387 23.3333 10.5 23.5947 10.5 23.9167C10.5 24.2387 10.2387 24.5 9.91667 24.5Z" fill="black"/>
<path d="M19.8346 23.3333C18.227 23.3333 16.918 22.0243 16.918 20.4167C16.918 18.809 18.227 17.5 19.8346 17.5C21.4423 17.5 22.7513 18.809 22.7513 20.4167C22.7513 22.0243 21.4423 23.3333 19.8346 23.3333ZM19.8346 18.6667C18.8698 18.6667 18.0846 19.4518 18.0846 20.4167C18.0846 21.3815 18.8698 22.1667 19.8346 22.1667C20.7995 22.1667 21.5846 21.3815 21.5846 20.4167C21.5846 19.4518 20.7995 18.6667 19.8346 18.6667Z" fill="black"/>
<path d="M20.7632 27.9995H18.9024C18.3004 27.9995 17.801 27.548 17.7415 26.9483L17.5934 25.4655C17.2399 25.308 16.9027 25.112 16.5842 24.8787L15.2215 25.4935C14.6744 25.7432 14.0315 25.5343 13.7317 25.0128L12.8019 23.4017C12.5009 22.8802 12.6432 22.2222 13.1309 21.871L14.3314 21.0077C14.308 20.8268 14.2917 20.6262 14.2917 20.4162C14.2917 20.2062 14.308 20.0043 14.3314 19.8247L13.1309 18.9613C12.6432 18.6102 12.5009 17.9522 12.8019 17.4307L13.7317 15.8195C14.0327 15.298 14.672 15.0915 15.2215 15.3388L16.5842 15.9537C16.9027 15.7203 17.2399 15.5243 17.5934 15.3668L17.7415 13.884C17.801 13.2855 18.3004 12.834 18.9024 12.834H20.7632C21.3652 12.834 21.8645 13.2855 21.924 13.8852L22.0722 15.368C22.4269 15.5255 22.764 15.7227 23.0814 15.9548L24.444 15.34C24.9935 15.0938 25.634 15.3003 25.9339 15.8207L26.8637 17.4318C27.1647 17.9533 27.0224 18.6113 26.5347 18.9625L25.3342 19.8258C25.3575 20.0067 25.3739 20.2073 25.3739 20.4173C25.3739 20.6273 25.3575 20.8292 25.3342 21.0088L26.5347 21.8722C27.0224 22.2233 27.1647 22.8813 26.8637 23.4028L25.935 25.0128C25.634 25.5332 24.9959 25.742 24.4452 25.4935L23.0825 24.8787C22.764 25.112 22.4269 25.308 22.0734 25.4655L21.924 26.9495C21.8645 27.548 21.3652 27.9995 20.7632 27.9995V27.9995ZM16.6659 23.6187C16.8 23.6187 16.933 23.6653 17.0404 23.7552C17.4359 24.0865 17.8734 24.3397 18.3389 24.51C18.5489 24.587 18.697 24.7772 18.7192 25L18.9035 26.8328H20.7644L20.9475 25C20.9697 24.7772 21.1179 24.587 21.3279 24.51C21.7934 24.3397 22.2309 24.0853 22.6264 23.7552C22.799 23.6117 23.037 23.579 23.24 23.6712L24.9247 24.4318L25.8545 22.8207L24.3635 21.7497C24.1815 21.619 24.0917 21.395 24.129 21.1745C24.1722 20.9283 24.2072 20.6775 24.2072 20.4185C24.2072 20.1595 24.1722 19.9087 24.129 19.6625C24.0905 19.442 24.1815 19.2192 24.3635 19.0873L25.8545 18.0163L24.9247 16.4052L23.24 17.1647C23.0359 17.2568 22.7979 17.2242 22.6252 17.0807C22.2309 16.7493 21.7945 16.4962 21.3267 16.3258C21.1167 16.2488 20.9685 16.0587 20.9464 15.8358L20.7632 13.9995H18.9024L18.7192 15.8323C18.697 16.0552 18.5489 16.2453 18.3389 16.3223C17.8734 16.4927 17.4359 16.747 17.0404 17.0772C16.8689 17.2207 16.6309 17.2545 16.4267 17.1612L14.742 16.4005L13.8122 18.0117L15.3032 19.0827C15.4852 19.2133 15.575 19.4373 15.5377 19.6578C15.4945 19.904 15.4595 20.1548 15.4595 20.4138C15.4595 20.6728 15.4945 20.9237 15.5377 21.1698C15.5762 21.3903 15.4852 21.6132 15.3032 21.745L13.8122 22.816L14.742 24.4272L16.4267 23.6677C16.5037 23.635 16.5842 23.6187 16.6659 23.6187V23.6187Z" fill="black"/>
</g>
<defs>
<clipPath id="clip0">
<rect width="28" height="28" fill="white"/>
</clipPath>
</defs>
</svg>
