<svg width="28" height="28" viewBox="0 0 28 28" fill="none" xmlns="http://www.w3.org/2000/svg">
<path d="M3.5 7H5.83333H24.5" stroke="#BBBBBE" stroke-width="2" stroke-linecap="round" stroke-linejoin="round"/>
<path d="M9.33398 7V4.66667C9.33398 4.04783 9.57982 3.45434 10.0174 3.01675C10.455 2.57917 11.0485 2.33334 11.6673 2.33334H16.334C16.9528 2.33334 17.5463 2.57917 17.9839 3.01675C18.4215 3.45434 18.6673 4.04783 18.6673 4.66667V7M22.1673 7V23.3333C22.1673 23.9522 21.9215 24.5457 21.4839 24.9833C21.0463 25.4208 20.4528 25.6667 19.834 25.6667H8.16732C7.54848 25.6667 6.95499 25.4208 6.5174 24.9833C6.07982 24.5457 5.83398 23.9522 5.83398 23.3333V7H22.1673Z" stroke="#BBBBBE" stroke-width="2" stroke-linecap="round" stroke-linejoin="round"/>
</svg>
